<svg id="Layer_1" data-name="Layer 1" xmlns="http://www.w3.org/2000/svg" viewBox="0 0 84.03 11.33"><path d="M89.47,20.81h-.11L85.76,19l-3.6,1.8a.24.24,0,0,1-.26,0,.26.26,0,0,1-.09-.25l.66-3.77L79.59,14a.25.25,0,0,1-.07-.26.24.24,0,0,1,.21-.16L83.81,13l1.73-3.31a.26.26,0,0,1,.34-.1.32.32,0,0,1,.1.1L87.71,13l4.09.52a.25.25,0,0,1,.2.16.25.25,0,0,1-.06.26l-2.88,2.82.66,3.77a.26.26,0,0,1-.22.3h0Zm-3.71-2.36h.11l3.27,1.63-.59-3.41a.23.23,0,0,1,.07-.22l2.6-2.55-3.7-.47a.25.25,0,0,1-.19-.14l-1.57-3-1.56,3a.25.25,0,0,1-.19.14l-3.71.47,2.61,2.55a.26.26,0,0,1,.07.22l-.6,3.41,3.27-1.63Z" transform="translate(-7.99 -9.53)"/><path d="M71.59,20.81a.21.21,0,0,1-.11,0L67.88,19l-3.6,1.8a.24.24,0,0,1-.26,0,.26.26,0,0,1-.09-.25l.65-3.77L61.7,13.92a.25.25,0,0,1-.06-.26.24.24,0,0,1,.21-.16L65.93,13l1.73-3.31a.26.26,0,0,1,.34-.1.32.32,0,0,1,.1.1L69.83,13l4.09.52a.25.25,0,0,1,.2.16.25.25,0,0,1-.06.26l-2.88,2.82.66,3.77a.24.24,0,0,1-.1.25A.21.21,0,0,1,71.59,20.81Zm-3.71-2.36H68l3.27,1.63-.59-3.41a.23.23,0,0,1,.07-.22l2.6-2.55-3.7-.47a.25.25,0,0,1-.19-.14l-1.57-3-1.57,3a.21.21,0,0,1-.19.14l-3.7.47L65,16.48a.26.26,0,0,1,.07.22l-.6,3.41,3.27-1.63A.32.32,0,0,1,67.88,18.45Z" transform="translate(-7.99 -9.53)"/><path d="M53.71,20.81a.21.21,0,0,1-.11,0L50,19l-3.6,1.8a.24.24,0,0,1-.26,0,.26.26,0,0,1-.09-.25l.65-3.77-2.88-2.82a.25.25,0,0,1-.06-.26.24.24,0,0,1,.21-.16L48.05,13l1.73-3.31a.26.26,0,0,1,.34-.1.32.32,0,0,1,.1.1L52,13l4.09.52a.25.25,0,0,1,.2.16.25.25,0,0,1-.06.26L53.3,16.74l.7,3.77a.24.24,0,0,1-.1.25A.25.25,0,0,1,53.71,20.81ZM50,18.45h.11l3.27,1.63-.6-3.41a.27.27,0,0,1,.08-.22l2.6-2.55-3.7-.47a.25.25,0,0,1-.19-.14l-1.57-3-1.57,3a.21.21,0,0,1-.19.14l-3.7.47,2.61,2.55a.26.26,0,0,1,.07.22l-.6,3.41,3.27-1.63Z" transform="translate(-7.99 -9.53)"/><path d="M38.3,13.92l-2.88,2.82.66,3.77a.22.22,0,0,1-.1.24.24.24,0,0,1-.14.05h-.12L32.13,19l-3.6,1.79a.21.21,0,0,1-.26,0,.22.22,0,0,1-.1-.24l.66-3.77L26,13.92a.23.23,0,0,1-.06-.26.27.27,0,0,1,.2-.17L30.22,13,32,9.67a.26.26,0,0,1,.23-.14.28.28,0,0,1,.22.14L34.13,13l4.08.52a.27.27,0,0,1,.21.17A.24.24,0,0,1,38.3,13.92Z" transform="translate(-7.99 -9.53)"/><path d="M20.42,13.92l-2.88,2.82.66,3.77a.22.22,0,0,1-.1.24.21.21,0,0,1-.15.05h-.11L14.24,19l-3.59,1.76a.21.21,0,0,1-.26,0,.22.22,0,0,1-.1-.24L11,16.74,8.07,13.92A.25.25,0,0,1,8,13.66a.27.27,0,0,1,.21-.17L12.29,13,14,9.67a.28.28,0,0,1,.22-.14.26.26,0,0,1,.23.14L16.17,13l4.09.52a.27.27,0,0,1,.2.17A.25.25,0,0,1,20.42,13.92Z" transform="translate(-7.99 -9.53)"/></svg>