<svg id="Layer_1" data-name="Layer 1" xmlns="http://www.w3.org/2000/svg" viewBox="0 0 86.17 13.82"><polygon points="2.78 13.82 7.27 11.46 11.76 13.82 10.9 8.82 14.54 5.28 9.51 4.55 7.27 0 5.02 4.55 0 5.28 3.63 8.82 2.78 13.82"/><polygon points="25.18 0 22.93 4.55 17.91 5.28 21.54 8.82 20.68 13.82 25.18 11.46 29.67 13.82 28.81 8.82 32.45 5.28 27.42 4.55 25.18 0"/><polygon points="43.09 0 40.84 4.55 35.82 5.28 39.45 8.82 38.59 13.82 43.09 11.46 47.58 13.82 46.72 8.82 50.35 5.28 45.33 4.55 43.09 0"/><polygon points="78.9 0 76.66 4.55 71.63 5.28 75.27 8.82 74.41 13.82 78.9 11.46 83.39 13.82 82.54 8.82 86.17 5.28 81.15 4.55 78.9 0"/><polygon points="63.24 4.55 60.99 0 58.75 4.55 53.73 5.28 57.36 8.82 56.5 13.82 60.99 11.46 65.48 13.82 64.63 8.82 68.26 5.28 63.24 4.55"/></svg>