<svg id="Layer_1" data-name="Layer 1" xmlns="http://www.w3.org/2000/svg" viewBox="0 0 84.03 11.3"><path d="M89.47,20.07h-.11l-3.6-1.79-3.6,1.79a.24.24,0,0,1-.26,0,.25.25,0,0,1-.09-.24l.65-3.77-2.88-2.82a.27.27,0,0,1-.06-.26.23.23,0,0,1,.21-.17l4.08-.52L85.54,9a.26.26,0,0,1,.36-.08A.2.2,0,0,1,86,9l1.73,3.31,4.09.52A.25.25,0,0,1,92,13a.25.25,0,0,1-.06.26l-2.88,2.82.66,3.77a.28.28,0,0,1-.1.24Zm-3.71-2.35h.11l3.27,1.63-.59-3.41a.22.22,0,0,1,.07-.22l2.6-2.55-3.7-.47a.26.26,0,0,1-.19-.13l-1.57-3-1.57,3a.26.26,0,0,1-.19.13l-3.7.47,2.61,2.55a.26.26,0,0,1,.07.22l-.6,3.41,3.27-1.63Z" transform="translate(-7.99 -8.81)"/><path d="M71.59,20.07h-.11l-3.6-1.79-3.6,1.79a.24.24,0,0,1-.26,0,.25.25,0,0,1-.09-.24l.65-3.77L61.7,13.19a.27.27,0,0,1-.06-.26.23.23,0,0,1,.21-.17l4.08-.52,1.73-3.31A.26.26,0,0,1,68,8.85a.2.2,0,0,1,.08.08l1.73,3.31,4.09.52a.25.25,0,0,1,.2.17.25.25,0,0,1-.06.26L71.18,16l.66,3.77a.28.28,0,0,1-.1.24A.27.27,0,0,1,71.59,20.07Zm-3.71-2.35H68l3.27,1.63-.59-3.41a.22.22,0,0,1,.07-.22l2.6-2.55-3.7-.47a.26.26,0,0,1-.19-.13l-1.57-3-1.57,3a.26.26,0,0,1-.19.13l-3.7.47L65,15.74a.26.26,0,0,1,.07.22l-.6,3.41,3.27-1.63Z" transform="translate(-7.99 -8.81)"/><path d="M53.71,20.07H53.6L50,18.25,46.4,20a.24.24,0,0,1-.26,0,.28.28,0,0,1-.1-.24L46.7,16l-2.88-2.82a.25.25,0,0,1-.06-.26.23.23,0,0,1,.21-.17l4.08-.52L49.78,9a.26.26,0,0,1,.36-.08.2.2,0,0,1,.08.08L52,12.24l4.08.52a.23.23,0,0,1,.21.17.25.25,0,0,1-.06.26L53.3,16l.7,3.77a.28.28,0,0,1-.1.24A.25.25,0,0,1,53.71,20.07ZM50,17.72h.11l3.27,1.63-.6-3.41a.25.25,0,0,1,.08-.22l2.6-2.55-3.7-.47a.26.26,0,0,1-.19-.13L50,9.57l-1.57,3a.26.26,0,0,1-.19.13l-3.7.47,2.61,2.55a.29.29,0,0,1,.07.22l-.6,3.41,3.27-1.63Z" transform="translate(-7.99 -8.81)"/><path d="M35.83,20.07h-.11l-3.6-1.79-3.6,1.79a.24.24,0,0,1-.26,0,.28.28,0,0,1-.1-.24l.66-3.77-2.88-2.82a.25.25,0,0,1-.06-.26.23.23,0,0,1,.21-.17l4.08-.52L31.9,9a.26.26,0,0,1,.36-.08.2.2,0,0,1,.08.08l1.73,3.31,4.08.52a.23.23,0,0,1,.21.17.25.25,0,0,1-.06.26l-2.88,2.82.66,3.77a.28.28,0,0,1-.1.24Zm-3.71-2.35h.11l3.27,1.63-.6-3.41a.3.3,0,0,1,.1-.2l2.61-2.55-3.7-.47a.26.26,0,0,1-.19-.13l-1.57-3-1.57,3a.26.26,0,0,1-.19.13l-3.7.47,2.61,2.55a.29.29,0,0,1,.07.22l-.6,3.41L32,17.74Z" transform="translate(-7.99 -8.81)"/><path d="M20.42,13.19,17.54,16l.66,3.77a.25.25,0,0,1-.21.28h-.15l-3.6-1.79-3.6,1.79a.24.24,0,0,1-.26,0,.25.25,0,0,1-.09-.24l.65-3.77L8.06,13.19A.27.27,0,0,1,8,12.93a.23.23,0,0,1,.21-.17l4.08-.52L14,8.94a.25.25,0,0,1,.34-.1.19.19,0,0,1,.1.1l1.73,3.3,4.09.52a.27.27,0,0,1,.16.43Z" transform="translate(-7.99 -8.81)"/></svg>