<svg xmlns="http://www.w3.org/2000/svg" viewBox="0 0 95.45 474.04"><defs><style>.cls-1{fill:#285078;}.cls-2{fill:#effa1d;}.cls-3{fill:#fbfcfc;}.cls-4{fill:#fcfdfd;}.cls-5{fill:#e4e4e4;}.cls-6{fill:#f3f3f3;}</style></defs><g id="Layer_2" data-name="Layer 2"><g id="Layer_1-2" data-name="Layer 1"><path class="cls-1" d="M16.34,22l2.79-4a1.75,1.75,0,0,0,.3-.88l1.8-2A54.39,54.39,0,0,1,40.41,3.22,25.67,25.67,0,0,1,59,5.44c3.74,2,7.28,4.44,10.91,6.67l11.25,14a79.78,79.78,0,0,1,10,33.14C92.75,83.3,94.55,107.39,95,131.5c1.14,59,.15,117.91-4,176.76-.91,12.94-2,25.87-3.5,38.76-1.84,16.35-4.1,32.64-6.18,49l-6.84,36c-.35,1.34-.7,2.67-1.06,4q-1.73,6.86-3.47,13.71l-.72,3.36a.67.67,0,0,0-.21.65c-.25.79-.51,1.57-.77,2.36a.68.68,0,0,0-.23.64c-.26.78-.52,1.57-.79,2.35a.66.66,0,0,0-.22.63c-.29.79-.57,1.57-.85,2.36-.41,1.2-.77,2.43-1.26,3.61C61.49,474,61.48,474,52,474c-5.14,0-10.3.22-15.41-.14a5.75,5.75,0,0,1-4.22-2.91c-3-8.44-5.71-17-8.4-25.57-1.07-3.42-1.85-6.92-2.77-10.38-.13-.78-.27-1.56-.4-2.35a.56.56,0,0,0-.2-.51c-.83-4.2-1.7-8.4-2.49-12.61q-3-16.26-6-32.53c0-.67-.05-1.33-.07-2q-4.42-45.06-8.86-90.13a.59.59,0,0,0,0-.77Q2.07,271.53,1,249c0-.36,0-.71,0-1.07,0-.66,0-1.31,0-2,0-1.66.06-3.32,0-5C.66,210.24.24,179.5,0,148.76c-.1-13.27.21-26.55.34-39.83.37-6.58.73-13.15,1.13-19.73C2,80.79,2.54,72.38,3.06,64l.06-1,.48-3C5.54,46.53,9.08,33.64,16.34,22Zm-1.2,7,0-.06-1,2.06,0-.06q-2.38,6-4.75,12.09C8.34,48.19,6.64,53.35,6.3,58.6c-1.55,23.58-3.48,47.16-3.88,70.77C1.12,206,2.54,282.52,11.1,358.78c3.1,27.61,7,55.1,14.2,82,2.56,9.61,6.18,18.93,9.18,28.42,1.09,3.43,3.75,2.81,6.07,2.53.75-.1,1.3-1.78,1.94-2.73.16-1.63.46-3.27.46-4.9q0-226.3,0-452.61V4.65L31.2,10.87l-12.28,12L16.2,27.05C15.85,27.69,15.5,28.33,15.14,29ZM45.3,469.1c-.63,2.09.12,2.83,2.32,2.84s3-.73,2.35-2.82c.06-1.5.16-3,.16-4.49V5.46c-5-1-5-1-5,4.79q0,227.18,0,454.36C45.13,466.11,45.24,467.6,45.3,469.1ZM82.46,34.64A42.72,42.72,0,0,0,70.15,16c-4.73-5.12-10.51-8.38-17.89-10.4V12q0,225.83,0,451.65c0,1.83.09,3.66.14,5.49-.37,1.63-.35,3.13,1.92,2.79S60,473.5,60.26,469q5-15.75,9.95-31.5a5.81,5.81,0,0,0,.91-1.64q5.7-33.31,11.34-66.64a8.75,8.75,0,0,0,.62-1.85c2.34-26.32,5.24-52.61,6.81-79,1.7-28.55,2.65-57.17,3-85.77.37-29.28-.06-58.58-.74-87.86-.42-18.1-1.41-36.24-3.22-54.25C88.06,51.79,84.7,43.27,82.46,34.64Z"/><path class="cls-2" d="M69.92,12.11C66.29,9.88,62.75,7.48,59,5.44a25.67,25.67,0,0,0-18.6-2.22C45,.34,49.94-1,55.26.93,59,2.3,62.53,4,66.18,5.48,69.19,6.72,70.61,8.81,69.92,12.11Z"/><path class="cls-2" d="M69.26,453.05l.72-3.36Z"/><path class="cls-2" d="M68.28,456.06c.26-.79.52-1.57.77-2.36C68.8,454.49,68.54,455.27,68.28,456.06Z"/><path class="cls-2" d="M67.26,459.05c.27-.78.53-1.57.79-2.35C67.79,457.48,67.53,458.27,67.26,459.05Z"/><path class="cls-2" d="M66.19,462c.28-.79.56-1.57.85-2.36C66.75,460.47,66.47,461.25,66.19,462Z"/><path class="cls-2" d="M52.41,469.1c0-1.83-.14-3.66-.14-5.49q0-225.82,0-451.65V5.55c7.38,2,13.16,5.28,17.89,10.4,0,1.83-.09,3.66-.09,5.49V431.55c0,2,.1,4,.15,6q-5,15.75-9.95,31.5Z"/><path class="cls-3" d="M18.92,22.87l12.28-12c0,2.33.09,4.67.09,7q0,210.42-.15,420.84a70.39,70.39,0,0,0,5.34,26.6c1.16,2.9,2.81,4.4,6,3.68-.64.95-1.19,2.63-1.94,2.73-2.32.28-5,.9-6.07-2.53-3-9.49-6.62-18.81-9.18-28.42-7.17-26.89-11.1-54.38-14.2-82C2.54,282.52,1.12,206,2.42,129.37c.4-23.61,2.33-47.19,3.88-70.77.34-5.25,2-10.41,3.12-15.61l1.2-.18C9.18,55.17,7.16,67.5,6.42,79.9q-1.73,29.13-2,58.35c-.2,23.14.19,46.29.67,69.43.51,24.62,1.31,49.24,2.23,73.85.4,10.79,1.19,21.57,2.15,32.33q2.12,23.79,4.76,47.55c1.13,10.19,2.7,20.32,4.08,30.47l.84-.09v-4.47q0-179.49,0-359C19.14,26.52,19,24.69,18.92,22.87Z"/><path class="cls-2" d="M42.49,469c-3.2.72-4.85-.78-6-3.68a70.39,70.39,0,0,1-5.34-26.6q.34-210.42.15-420.84c0-2.33-.06-4.67-.09-7L43,4.65v6.83q0,226.31,0,452.61C43,465.72,42.65,467.36,42.49,469Z"/><path class="cls-4" d="M70.21,437.54c0-2-.15-4-.15-6V21.44c0-1.83.06-3.66.09-5.49A42.72,42.72,0,0,1,82.46,34.64c-.09,2.16-.26,4.32-.26,6.48q0,161.58,0,323.17c0,1.66.16,3.31.25,5q-5.65,33.32-11.34,66.64A5.81,5.81,0,0,1,70.21,437.54Z"/><path class="cls-2" d="M18.92,22.87c.08,1.82.22,3.65.22,5.48q0,179.49,0,359v4.47l-.84.09c-1.38-10.15-2.95-20.28-4.08-30.47q-2.64-23.75-4.76-47.55c-1-10.76-1.75-21.54-2.15-32.33C6.4,256.92,5.6,232.3,5.09,207.68c-.48-23.14-.87-46.29-.67-69.43q.24-29.19,2-58.35c.74-12.4,2.76-24.73,4.2-37.09q1.77-6,3.55-11.91l0,.06,1-2.06,0,.06c.36-.63.71-1.27,1.06-1.91Z"/><path class="cls-2" d="M82.46,369.26c-.09-1.66-.25-3.31-.25-5q0-161.58,0-323.17c0-2.16.17-4.32.26-6.48,2.24,8.63,5.6,17.15,6.48,25.91,1.81,18,2.8,36.15,3.22,54.25.68,29.28,1.11,58.58.74,87.86-.36,28.6-1.31,57.22-3,85.77-1.57,26.37-4.47,52.66-6.81,79A8.75,8.75,0,0,1,82.46,369.26Z"/><path class="cls-2" d="M45.3,469.1c-.06-1.5-.17-3-.17-4.49q0-227.17,0-454.36c0-5.76,0-5.76,5-4.79V464.63c0,1.5-.1,3-.16,4.49Z"/><path class="cls-5" d="M52.41,469.1l7.85-.06c-.28,4.46-3.71,2.51-5.93,2.85S52,470.73,52.41,469.1Z"/><path class="cls-2" d="M14.17,30.9q-1.78,6-3.55,11.91L9.42,43Q11.79,36.95,14.17,30.9Z"/><path class="cls-6" d="M45.3,469.1l4.67,0c.6,2.09-.17,2.82-2.35,2.82S44.67,471.19,45.3,469.1Z"/><path class="cls-2" d="M15.18,28.9l-1,2.06Z"/><path class="cls-2" d="M16.2,27.05c-.35.64-.7,1.28-1.06,1.91C15.5,28.33,15.85,27.69,16.2,27.05Z"/></g></g></svg>