<svg xmlns="http://www.w3.org/2000/svg" viewBox="0 0 96.99 314.97"><defs><style>.cls-1{fill:#345880;}.cls-2{fill:#effa1d;}.cls-3{fill:#fefefe;}.cls-4{fill:#fcfcfc;}.cls-5{fill:#fdfdfe;}.cls-6{fill:#fcfdfd;}.cls-7{fill:#e4e4e4;}.cls-8{fill:#f8f8f8;}</style></defs><g id="Layer_2" data-name="Layer 2"><g id="Layer_1-2" data-name="Layer 1"><path class="cls-1" d="M84.35,228.39l-8.19,42-.22,1c-.25,1-.5,2-.76,3q-4.5,17.55-9,35.1c-.4,1.58-.91,3.13-1.61,5.48l-10.35-7.62-3-3.5-4.42-7.05c-4.57,7.5-9.5,14-18.15,17.66L18.59,274.24c-.26-.95-.52-1.9-.77-2.85C16.88,266.7,16,262,15,257.31Q11.67,241.1,8.26,224.9l-.09,0q-2.89-22.81-5.78-45.64a.63.63,0,0,0-.15-.81L0,133.4v-1q1.58-22.5,3.16-45a.73.73,0,0,0,.17-.87c3-15.32,6.33-30.56,12.4-45,.11-.36.21-.72.31-1.09l1.35-2.88c5-7.75,9.38-16,15.09-23.12C36.38,9.47,42.08,6,47,1.89c3.16,2.4,6.6,4.52,9.44,7.25C69.1,21.3,76.63,36.56,82.13,53c7.55,22.56,10.09,45.94,11.15,69.55q0,8,0,15.91l-.84,22.09-.19,2.84q-.37,6-.76,12c-.08.35-.16.69-.23,1-.62,5.6-1.27,11.21-1.83,16.82-.54,5.38-1,10.76-1.46,16.15l0,0q-.53,3.53-1,7l0,0c-.34,2-.69,4-1,6l0,0Q85.17,225.36,84.35,228.39ZM19.06,40.31,18,42.73l.1.09c-.34.85-.69,1.71-1,2.56l0-.06q-2.86,8.06-5.74,16.09l-.3,3v-.11a54.2,54.2,0,0,0-1.86,5.47c-8,34.64-7.77,69.71-4.73,104.82,3,34.18,9.12,67.89,16.91,101.29,2.75,11.77,5.8,23.46,8.79,35.48,8.2-4.43,12.53-11.58,16.6-19.15,9.15,14.32,10.8,16.14,16.76,18.49.2-.6.44-1.17.58-1.77,5.19-22.5,10.85-44.91,15.45-67.54,6.7-33,10.92-66.32,11.51-100,.36-20.78-.27-41.51-4.93-61.9-.3-1.45-.61-2.9-.91-4.34L85,74.64c-2.68-9.73-4.69-19.7-8.17-29.14-5.53-15-13.72-28.42-26.4-38.73-2.73-2.22-4.61-2.25-7.24,0A82,82,0,0,0,20,38.09c-.34.77-.69,1.54-1,2.3Z"/><path class="cls-2" d="M93.28,122.51c-1.06-23.61-3.6-47-11.15-69.55-5.5-16.4-13-31.66-25.71-43.82C53.58,6.41,50.14,4.29,47,1.89c3.36-3.58,6.12-1.39,8.86.94C66.5,11.89,74.18,23.13,80,35.76a18.58,18.58,0,0,0,1,1.67l1.18,3,.62,1q5.69,22.49,11.36,45c0,.34.05.69.07,1l2.82,48q-1,16.49-2,33H93.35l.66-4.83.06-3.15L94,138.46Q93.65,130.48,93.28,122.51Z"/><path class="cls-3" d="M82.12,40.38l-1.18-3"/><path class="cls-3" d="M51.24,303.85l3,3.5C51.45,307.68,50.82,306.21,51.24,303.85Z"/><path class="cls-2" d="M94.19,179.43q-2.88,20.52-5.76,41c-.18,1.3-.24,2.62-.36,3.93,0,.31-.06.62-.07.93q-.89,3.21-1.78,6.4l-.75,0c-.08-1.11-.17-2.22-.25-3.33q.39-3,.79-6.09l0,0c.34-2,.69-4,1-6l0,0q.51-3.52,1-7l0,0a6.62,6.62,0,0,0,1.06-2c1-7.62,2.14-15.24,2.89-22.89.26-2.65-.41-5.38-.66-8.07.07-.34.15-.68.23-1,.62-2.34,1.23-4.69,1.85-7h1.59c-.23,3.33-.47,6.65-.7,10Z"/><path class="cls-4" d="M86,222.33q-.41,3-.79,6.09l-.87,0Q85.18,225.36,86,222.33Z"/><path class="cls-5" d="M94.1,86.38q-5.68-22.48-11.36-45"/><path class="cls-6" d="M97,135.38l-2.82-48"/><path class="cls-3" d="M94.24,178.32c.23-3.32.47-6.64.7-10q1-16.48,2-33"/><path class="cls-7" d="M82.74,41.41l-.62-1"/><path class="cls-7" d="M94.17,87.41c0-.34,0-.69-.07-1"/><path class="cls-4" d="M85,74.64l.16.43c.3,1.44.61,2.89.91,4.34,4.66,20.39,5.29,41.12,4.93,61.9-.59,33.72-4.81,67.06-11.51,100-4.6,22.63-10.26,45-15.45,67.54-.14.6-.38,1.17-.58,1.77-6-2.35-7.61-4.17-16.76-18.49-4.07,7.57-8.4,14.72-16.6,19.15-3-12-6-23.71-8.79-35.48-7.79-33.4-14-67.11-16.91-101.29-3-35.11-3.31-70.18,4.73-104.82A54.2,54.2,0,0,1,11,64.26a39.79,39.79,0,0,1-.38,5.9A240.37,240.37,0,0,0,5.14,120c.06,14.12.64,28.23,1,42.35,1,23.32,4.73,46.23,9.44,69q-3.81-34.52-7.61-69c-.25-4.3-.84-8.61-.68-12.9Q7.88,133,9,116.65A163.21,163.21,0,0,1,21.19,64.59c5.74-13.6,13.36-26,25.33-35.18,2.86-2.21,5.12-2.61,8.32-.11,11.77,9.16,19.44,21.18,25.3,34.6C81.71,67.51,83.39,71.06,85,74.64Z"/><path class="cls-2" d="M85,74.64c-1.63-3.58-3.31-7.13-4.88-10.74-5.86-13.42-13.53-25.44-25.3-34.6-3.2-2.5-5.46-2.1-8.32.11C34.55,38.62,26.93,51,21.19,64.59A163.21,163.21,0,0,0,9,116.65Q7.86,133,7.29,149.42c-.16,4.29.43,8.6.68,12.9l-1.83,0c-.36-14.12-.94-28.23-1-42.35a240.37,240.37,0,0,1,5.49-49.85,39.79,39.79,0,0,0,.38-5.9v.11l1.38-2.94Q14.7,53.38,17,45.32l0,.06c.35-.85.7-1.71,1-2.56l-.1-.09,1.11-2.42-.06.08c.35-.76.7-1.53,1-2.3A82,82,0,0,1,43.21,6.73c2.63-2.21,4.51-2.18,7.24,0C63.13,17.08,71.32,30.51,76.85,45.5,80.33,54.94,82.34,64.91,85,74.64Z"/><path class="cls-7" d="M2.24,178.43a.63.63,0,0,1,.15.81"/><path class="cls-4" d="M91.27,176.41c.25,2.69.92,5.42.66,8.07-.75,7.65-1.85,15.27-2.89,22.89a6.62,6.62,0,0,1-1.06,2c.48-5.39.92-10.77,1.46-16.15C90,187.62,90.65,182,91.27,176.41Z"/><path class="cls-7" d="M17,45.32q-2.32,8.06-4.66,16.11l-1.08,0Q14.18,53.37,17,45.32Z"/><path class="cls-8" d="M94,138.46l.06,21.9-1.62.15.84-22.09A3.48,3.48,0,0,1,94,138.46Z"/><path class="cls-2" d="M94,138.46a3.48,3.48,0,0,0-.72,0q0-8,0-15.91Q93.64,130.48,94,138.46Z"/><path class="cls-4" d="M93.35,168.34c-.62,2.35-1.23,4.7-1.85,7q.39-6,.76-12l1.75.16Z"/><path class="cls-4" d="M88,209.33q-.53,3.53-1,7Q87.48,212.86,88,209.33Z"/><path class="cls-4" d="M87,216.33c-.34,2-.69,4-1,6C86.31,220.36,86.66,218.35,87,216.33Z"/><path class="cls-2" d="M94,163.51l-1.75-.16.19-2.84,1.62-.15Z"/><path class="cls-2" d="M86.09,79.41c-.3-1.45-.61-2.9-.91-4.34C85.48,76.51,85.79,78,86.09,79.41Z"/><path class="cls-4" d="M11.3,61.41l1.08,0L11,64.37Z"/><path class="cls-7" d="M20,38.09c-.34.77-.69,1.54-1,2.3C19.35,39.63,19.7,38.86,20,38.09Z"/><path class="cls-7" d="M19.06,40.31,18,42.73Z"/><path class="cls-7" d="M18.05,42.82c-.34.85-.69,1.71-1,2.56C17.36,44.53,17.71,43.67,18.05,42.82Z"/><path class="cls-7" d="M94.19,179.43l0-1.11"/><path class="cls-2" d="M6.14,162.36l1.83,0q3.8,34.53,7.61,69C10.87,208.59,7.09,185.68,6.14,162.36Z"/></g></g></svg>