<svg xmlns="http://www.w3.org/2000/svg" viewBox="0 0 101.33 406.99"><defs><style>.cls-1{fill:#345c81;}.cls-2{fill:#fefefe;}.cls-3{fill:#effa1d;}.cls-4{fill:#fbfcfc;}.cls-5{fill:#e4e4e4;}</style></defs><g id="Layer_2" data-name="Layer 2"><g id="Layer_1-2" data-name="Layer 1"><path class="cls-1" d="M15.61,41.27l1.07-3.15c3.4-7.2,6.46-14.59,10.3-21.54a35.43,35.43,0,0,1,16.25-15c9.9-4,17.58.24,24.62,6.71C69.31,9.6,70.61,11.1,72,12.52c8.84,12,13.54,25.83,17.06,40.09C97.25,85.89,99.75,119.89,100.71,154c1.14,40.46,1,80.94-2.68,121.27C96,297.57,92.9,319.8,89.9,342c-1.08,8-3.26,15.92-5,23.87l0,0c-.3,1.07-.61,2.13-.91,3.2-.37,1.6-.75,3.21-1.12,4.81l-2.52,7.91c-3.08,7.15-6.26,14.24-9.18,21.45-1.19,2.95-3,3.77-6.06,3.71-9.62-.19-19.26-.26-28.87,0-3.45.11-5.2-1.1-6.28-4.13q-6.27-17.5-12.63-35c-.27-1.1-.55-2.19-.83-3.29a.48.48,0,0,0-.29-.6L7.82,320.9l-.44-2.36,0-.32q-2.26-22.65-4.54-45.29l0-1.06-2-44q-.39-23.51-.8-47v-1l5.79-92,.06-1.07.37-3q3.89-19,7.79-38c.45-1.37.89-2.74,1.34-4.1A.5.5,0,0,0,15.61,41.27Zm5.31-7.37,0-.08q-3.88,13.05-7.78,26.1C10.83,75,7.84,90.06,6.24,105.25,2.72,138.73,2.17,172.36,2.8,206c.89,47.44,2.45,94.83,12.25,141.5,3.69,17.58,8.51,34.82,15.57,51.41,1.8,4.23,3.88,6.3,8.76,5.85,5.45-.51,11-.12,16.47-.12,13.25,0,13.25,0,17.22-12.59.63-1.32,1.39-2.6,1.89-4,10.49-28.8,16.28-58.72,18.72-89.08,2.67-33.17,4.42-66.46,4.93-99.72.42-27.43-1.26-54.91-2.58-82.34a324.87,324.87,0,0,0-9.24-63.09C83.74,41.63,80.38,29.4,73,18.85c-3-3.7-5.52-7.94-9.07-11C54.37-.25,44.64.59,35.71,9.67,29,15.54,25.19,23.31,22,31.42Z"/><path class="cls-2" d="M80.42,381.79l2.52-7.91C84.61,378.11,83.94,380.21,80.42,381.79Z"/><path class="cls-3" d="M85,365.87c.07.68.14,1.36.22,2l-1.13,1.16C84.36,368,84.67,366.94,85,365.87Z"/><path class="cls-4" d="M73.07,392.05c-4,12.59-4,12.59-17.22,12.59-5.49,0-11-.39-16.47.12-4.88.45-7-1.62-8.76-5.85-7.06-16.59-11.88-33.83-15.57-51.41C5.25,300.83,3.69,253.44,2.8,206c-.63-33.64-.08-67.27,3.44-100.75,1.6-15.19,4.59-30.22,7-45.33l1.15-.05C12.49,74,10.18,88.12,8.9,102.32c-1.7,19-3.23,38.1-3.67,57.18-.48,21.12.17,42.29.67,63.42.35,14.63.94,29.26,2,43.85q1.93,25.56,5,51a306.81,306.81,0,0,0,16,67.22c1.75,4.85,3.91,9.56,5.89,14.33l1.09-.34v-4.37q0-190,0-380c0-1.67-.13-3.33-.2-5C44.64.59,54.37-.25,63.88,7.87c3.55,3,6.08,7.28,9.07,11,0,1-.12,2-.12,3q0,182.87,0,365.73C72.84,389.07,73,390.56,73.07,392.05Z"/><path class="cls-3" d="M35.71,9.67c.07,1.66.2,3.32.2,5q0,190,0,380V399l-1.09.34c-2-4.77-4.14-9.48-5.89-14.33A306.81,306.81,0,0,1,13,317.8q-3.1-25.46-5-51c-1.1-14.59-1.69-29.22-2-43.85-.5-21.13-1.15-42.3-.67-63.42.44-19.08,2-38.16,3.67-57.18,1.28-14.2,3.59-28.3,5.44-42.45,1.54-5.5,3.16-11,4.6-16.5.82-3.14,1.37-6.36,2-9.55l0,.08,1-2.48C25.19,23.31,29,15.54,35.71,9.67Z"/><path class="cls-3" d="M73.07,392.05c-.08-1.49-.23-3-.23-4.48q0-182.86,0-365.73c0-1,.08-2,.12-3,7.43,10.55,10.79,22.78,13.84,35A324.87,324.87,0,0,1,96,116.94c1.32,27.43,3,54.91,2.58,82.34-.51,33.26-2.26,66.55-4.93,99.72-2.44,30.36-8.23,60.28-18.72,89.08C74.46,389.45,73.7,390.73,73.07,392.05Z"/><path class="cls-5" d="M21,33.82c-.66,3.19-1.21,6.41-2,9.55-1.44,5.53-3.06,11-4.6,16.5l-1.15.05Q17.08,46.87,21,33.82Z"/><path class="cls-5" d="M22,31.42l-1,2.48Z"/></g></g></svg>