<svg id="Layer_1" data-name="Layer 1" xmlns="http://www.w3.org/2000/svg" viewBox="0 0 84.03 11.37"><path d="M82.05,18.69H81.9a.31.31,0,0,1-.1-.25l.66-3.77-2.88-2.82a.25.25,0,0,1-.06-.26.23.23,0,0,1,.21-.16l4.08-.52L85.54,7.6a.25.25,0,0,1,.22-.13h0A.25.25,0,0,1,86,7.6l1.73,3.31,4.08.52a.23.23,0,0,1,.21.16.25.25,0,0,1-.06.26l-2.88,2.82.66,3.77a.25.25,0,0,1-.1.25.3.3,0,0,1-.26,0l-3.6-1.8-3.6,1.8ZM80.3,11.81l2.61,2.55a.29.29,0,0,1,.07.22L82.38,18l3.27-1.63a.22.22,0,0,1,.22,0L89.14,18l-.6-3.41a.24.24,0,0,1,.08-.22l2.6-2.55-3.7-.47a.3.3,0,0,1-.19-.14l-1.57-3-1.57,3a.3.3,0,0,1-.19.14Z" transform="translate(-7.99 -7.35)"/><path d="M64.17,18.69H64a.31.31,0,0,1-.1-.25l.66-3.77L61.7,11.8a.25.25,0,0,1-.06-.26.23.23,0,0,1,.21-.16l4.08-.52,1.73-3.31a.25.25,0,0,1,.22-.13h0a.25.25,0,0,1,.22.13l1.73,3.31,4.08.52a.23.23,0,0,1,.21.16.25.25,0,0,1-.06.26l-2.88,2.82.66,3.77a.31.31,0,0,1-.1.25.3.3,0,0,1-.26,0l-3.6-1.8-3.6,1.8Zm-1.75-6.88L65,14.36a.24.24,0,0,1,.08.22L64.48,18l3.27-1.63a.22.22,0,0,1,.22,0L71.24,18l-.6-3.41a.29.29,0,0,1,.07-.22l2.61-2.55-3.7-.47a.3.3,0,0,1-.19-.14l-1.57-3-1.57,3a.3.3,0,0,1-.19.14Z" transform="translate(-7.99 -7.35)"/><path d="M56.18,11.8,53.3,14.62l.7,3.77a.28.28,0,0,1-.1.24.24.24,0,0,1-.26,0L50,16.86l-3.6,1.79a.21.21,0,0,1-.11,0,.38.38,0,0,1-.15,0,.26.26,0,0,1-.1-.24l.66-3.77-2.88-2.82a.25.25,0,0,1-.06-.26.23.23,0,0,1,.21-.17l4.08-.52,1.73-3.3a.24.24,0,0,1,.32-.13.25.25,0,0,1,.12.13L52,10.85l4.08.52a.23.23,0,0,1,.21.17A.25.25,0,0,1,56.18,11.8Z" transform="translate(-7.99 -7.35)"/><path d="M38.3,11.8l-2.88,2.82.65,3.77a.25.25,0,0,1-.09.24.24.24,0,0,1-.26,0l-3.6-1.79-3.6,1.79h-.11a.38.38,0,0,1-.15-.05.26.26,0,0,1-.1-.24l.66-3.77-2.88-2.82a.25.25,0,0,1-.06-.26.25.25,0,0,1,.2-.17l4.09-.52L31.9,7.5a.24.24,0,0,1,.32-.13.25.25,0,0,1,.12.13l1.73,3.3,4.08.52a.23.23,0,0,1,.21.17A.28.28,0,0,1,38.3,11.8Z" transform="translate(-7.99 -7.35)"/><path d="M20.42,11.8l-2.88,2.82.65,3.77a.25.25,0,0,1-.09.24.38.38,0,0,1-.15.05.21.21,0,0,1-.11,0l-3.6-1.79-3.6,1.79a.24.24,0,0,1-.26,0,.24.24,0,0,1-.1-.24l.66-3.77L8.06,11.8A.25.25,0,0,1,8,11.54a.25.25,0,0,1,.2-.17l4.09-.52L14,7.55a.22.22,0,0,1,.22-.14.22.22,0,0,1,.22.14l1.73,3.3,4.08.52a.23.23,0,0,1,.21.17A.28.28,0,0,1,20.42,11.8Z" transform="translate(-7.99 -7.35)"/></svg>