<svg xmlns="http://www.w3.org/2000/svg" viewBox="0 0 108 354.71"><defs><style>.cls-1{fill:#fefefe;}.cls-2{fill:#345880;}.cls-3{fill:#e4e4e4;}.cls-4{fill:#fcfcfc;}.cls-5{fill:#fcfdfd;}.cls-6{fill:#effa1d;}.cls-7{fill:#fdfdfe;}.cls-8{fill:#f8f8f8;}</style></defs><g id="Layer_2" data-name="Layer 2"><g id="Layer_1-2" data-name="Layer 1"><path class="cls-1" d="M18.53,36.32c-.48,1.38-1,2.76-1.43,4.14-2.77-.38-5.53-1.1-8.3-1.11"/><path class="cls-1" d="M20.51,32.3c-.49,1.08-1,2.16-1.48,3.23-1.66-.07-3.32-.21-5-.21"/><path class="cls-2" d="M17.1,40.46c.47-1.38.95-2.76,1.43-4.14a1,1,0,0,0,.5-.79c.49-1.07,1-2.15,1.48-3.23,7.18-12.92,16.75-23.41,30-30.48,4.58-2.45,8.38-2.42,13,0,13.24,7.05,22.77,17.56,30,30.46L95,35.7a.51.51,0,0,0,.38.55c2.08,7.82,4.56,15.57,6.13,23.49,1.46,7.45,2,15.09,2.88,22.65a.77.77,0,0,0,.11.89l2.82,45.14a.64.64,0,0,0,.06.82l.66,47.15q-.6,21.95-1.21,43.89l0,1.07q-.18,3.51-.38,7c-.13.64-.32,1.28-.39,1.93-1.74,14.77-3.23,29.56-5.28,44.28-1.2,8.65-3.29,17.17-5,25.74l0,.13-.87,2.94-.21,1.12-.81,2.72-.3.95-.72,2.06a.93.93,0,0,0-.35.89c-.25.72-.49,1.45-.74,2.17l-1.06,3q-2.25,4.9-4.49,9.82l-1.07,2c-4.89,6.46-8.88,13.95-14.86,19.16-11.57,10.09-14.54,9.54-26.74.2-1.31-1-2.5-2.16-3.75-3.25q-1.48-1.74-3-3.5l-13.2-24.45-11.7-48q-2.32-23.51-4.66-47-.75-22-1.51-44,.43-24,.86-48l0-1q1.46-22.49,2.92-45l.06-1,.3-3c.89-6.87,1.51-13.79,2.77-20.6C13.75,52.56,15.58,46.54,17.1,40.46ZM58.33,228.61v122.8c3.5-1.57,6.34-2.28,8.49-3.91,9.63-7.27,15.34-17.46,19.62-28.39,11.41-29.14,15.12-59.78,17.16-90.72.68-18.3,1.83-36.61,1.93-54.91.23-39.34-1-78.66-7.09-117.59C95,34,84,16.4,64.36,5c-1.8-1-3.72-1.88-6.3-3.17V7.68q0,108,0,216C58.07,225.3,58.24,227,58.33,228.61Zm-2.74-.22c0-1,.14-2,.14-3q0-109.45,0-218.91c0-1.28-.12-2.55-.22-4.46-2.33,1.16-4.27,2-6.1,3.05C33.16,14.45,22.88,28.52,17.64,46.32c-5,17.07-5.56,34.82-6.83,52.38A949.64,949.64,0,0,0,9.7,222.55c1.49,25.62,4.3,51.09,10.92,76,3.91,14.68,8.83,29,18.4,41.13,4.28,5.44,9.4,9.83,16.51,12.41v-3.72Z"/><path class="cls-1" d="M9.85,79.31l-.3,3"/><path class="cls-1" d="M36.76,340.77q1.47,1.75,3,3.5C37,344.61,36.33,343.14,36.76,340.77Z"/><path class="cls-1" d="M85.07,328.16l1.07-2,1,1.36Z"/><path class="cls-3" d="M14.05,35.32c1.66,0,3.32.14,5,.21a1,1,0,0,1-.5.79"/><path class="cls-4" d="M55.53,348.35v3.72c-7.11-2.58-12.23-7-16.51-12.41-9.57-12.16-14.49-26.45-18.4-41.13-6.62-24.89-9.43-50.36-10.92-76A949.64,949.64,0,0,1,10.81,98.7c1.27-17.56,1.81-35.31,6.83-52.38,5.24-17.8,15.52-31.87,31.77-41.24,1.83-1,3.77-1.89,6.1-3.05.1,1.91.22,3.18.22,4.46q0,109.46,0,218.91c0,1-.09,2-.14,3H12.08c2.47,17.12,4.56,33.19,7.14,49.18a166.4,166.4,0,0,0,12.61,42.82C37.07,331.89,43.82,342.26,55.53,348.35Z"/><path class="cls-5" d="M58.33,228.61c-.09-1.66-.26-3.31-.26-5q0-108,0-216V1.83C60.64,3.12,62.56,4,64.36,5,84,16.4,95,34,98.44,55.89c6.06,38.93,7.32,78.25,7.09,117.59-.1,18.3-1.25,36.61-1.93,54.91Z"/><path class="cls-6" d="M58.33,228.61l45.27-.22c-2,30.94-5.75,61.58-17.16,90.72-4.28,10.93-10,21.12-19.62,28.39-2.15,1.63-5,2.34-8.49,3.91Z"/><path class="cls-6" d="M55.53,348.35c-11.71-6.09-18.46-16.46-23.7-28a166.4,166.4,0,0,1-12.61-42.82c-2.58-16-4.67-32.06-7.14-49.18H55.59Z"/><path class="cls-7" d="M9.49,83.33Q8,105.82,6.57,128.3"/><path class="cls-5" d="M6.55,129.32q-.43,24-.86,48"/><path class="cls-1" d="M5.69,177.31q.76,22,1.51,44H5.65a33.71,33.71,0,0,0-5.65-1"/><path class="cls-3" d="M9.55,82.3l-.06,1"/><path class="cls-3" d="M6.57,128.3l0,1"/><path class="cls-8" d="M94.61,304.53l-.81,2.72Z"/><path class="cls-6" d="M95.69,300.47l-.87,2.94Z"/><path class="cls-8" d="M93.5,308.2l-.72,2.06Z"/></g></g></svg>