<svg xmlns="http://www.w3.org/2000/svg" viewBox="0 0 79.44 277.99"><defs><style>.cls-1{fill:#2e517b;}.cls-2{fill:#fefefe;}.cls-3{fill:#345880;}.cls-4{fill:#426187;}.cls-5{fill:#effa1d;}.cls-6{fill:#fbfcfc;}.cls-7{fill:#e4e4e4;}</style></defs><g id="Layer_2" data-name="Layer 2"><g id="Layer_1-2" data-name="Layer 1"><path class="cls-1" d="M1.74,185.65c-.69-12.45-1-24.93-1.4-37.4-.07-1.76-.2-3.52-.34-5.91M.19,140l2.46-39L3,98,3.09,97l.26-3c1.7-9.2,3.29-18.42,5.16-27.58.79-3.88,2.18-7.65,3.3-11.47.24-1,.49-2,.73-3a.46.46,0,0,0,.3-.57c.33-1,.67-2.1,1-3.15Q15,45.07,16.21,42l1.35,1.5A272.89,272.89,0,0,0,4.37,105.69c-3.31,37.08-2.75,74.1,3,110.94,2.66,17.11,6.73,33.85,14.45,49.53,3.23,6.56,8.8,8.88,16,9.8l-.59-3.76c.25-3,.7-6,.71-8.94q.08-39.24,0-78.5a53.69,53.69,0,0,0-.63-5.9c.16-1.81.46-3.62.46-5.44q0-81.55,0-163.11c0-1.37-.22-2.75-.39-4.84L34.25,9,33.13,7.77l2.76-4.58L38.31,0,40.9,2.1l3.72,3v.12c.15,1,0,2.26.49,3,8.71,13.33,14.53,28,19.58,43a.57.57,0,0,0,.39.68q4.77,22.65,9.53,45.31l0,.07q1.27,19.88,2.56,39.75-.57,20.24-1.12,40.48L74.43,177q.22-18.1.46-36.2c0-25-2.39-49.81-8.3-74.2C61.8,46.77,55,27.78,44,10.44c-1-1.57-2.16-3-3.24-4.54l-.91.46v3.92q0,80.41,0,160.84c0,1.32.17,2.65.25,4l0,97.86c-1,2.5,0,3.61,2.38,2.8A87.6,87.6,0,0,0,50.81,272l6.57-9,.93,2.17c-3.12,8.89-10.06,12.54-18.8,12.82s-15.93-3-19.78-11.48c-2.18-4.81-4.24-9.67-6.36-14.52-.17-.73-.34-1.46-.5-2.19q-1.48-5-3-10l-1.08-4.11a.49.49,0,0,0-.23-.56l-.81-4.29L2.09,193"/><path class="cls-2" d="M0,142.34c.14,2.39.27,4.15.34,5.91.44,12.47.71,24.95,1.4,37.4"/><path class="cls-3" d="M58.31,265.16,57.38,263c1-2.62,2-5.24,3-7.87,7.77-20.67,10.61-42.34,13-64.09.59.64,1.17,1.29,1.75,1.94-.48,4.91-.76,9.85-1.47,14.72-1.39,9.43-3,18.83-4.54,28.24h0L68.31,240,67.17,244c-.51,1.63-1,3.26-1.52,4.89Q62,257,58.31,265.16Z"/><path class="cls-2" d="M8.83,235.65l1.08,4.11"/><path class="cls-2" d="M1.54,231.93a37.83,37.83,0,0,0,6.25-1.13l.81,4.29"/><path class="cls-4" d="M31.7,9.14l1.43-1.37L34.25,9,17.56,43.46,16.21,42C19.37,30.08,25.11,19.41,31.7,9.14Z"/><path class="cls-2" d="M65.65,248.86c.51-1.63,1-3.26,1.52-4.89.5.7,1.57,1.83,1.41,2A20.81,20.81,0,0,1,65.65,248.86Z"/><path class="cls-2" d="M12.87,249.79c.16.73.33,1.46.5,2.19l-1.71-1Z"/><path class="cls-5" d="M69.18,235.94c0,1,.09,2,.13,3.05l-1,1Z"/><path class="cls-6" d="M17.56,43.46,34.25,9l3.1-3.51c.17,2.09.39,3.47.39,4.84q0,81.56,0,163.11c0,1.82-.3,3.63-.46,5.44-6.66,6.5-12.89,13.52-20.1,19.34-7.64,6.18-9.54,12.84-7.08,22.35,3.71,14.32,6.77,28.76,13.55,42.05,2.82,5.53,7.12,9.1,13.55,9.6l.59,3.76c-7.19-.92-12.76-3.24-16-9.8C14.07,250.48,10,233.74,7.34,216.63c-5.72-36.84-6.28-73.86-3-110.94A272.89,272.89,0,0,1,17.56,43.46Z"/><path class="cls-6" d="M40.12,175.09c-.08-1.32-.25-2.65-.25-4q0-80.41,0-160.84V6.36l.91-.46c1.08,1.51,2.25,3,3.24,4.54C55,27.78,61.8,46.77,66.59,66.58c5.91,24.39,8.29,49.16,8.3,74.2Z"/><path class="cls-5" d="M40.12,175.09l34.77-34.31q-.24,18.1-.46,36.2l-.15,4q-.42,5-.85,10.05c-2.4,21.75-5.24,43.42-13,64.09-1,2.63-2,5.25-3,7.87l-6.57,9L40.08,273Q40.1,224,40.12,175.09Z"/><path class="cls-5" d="M37.19,272.2c-6.43-.5-10.73-4.07-13.55-9.6-6.78-13.29-9.84-27.73-13.55-42.05-2.46-9.51-.56-16.17,7.08-22.35,7.21-5.82,13.44-12.84,20.1-19.34a53.69,53.69,0,0,1,.63,5.9q.06,39.26,0,78.5C37.89,266.24,37.44,269.22,37.19,272.2Z"/><path class="cls-5" d="M77.22,193.81c-1.9,13.08-4.07,26.12-6.13,39.17l-.74,2-.12,1-1.06,0c1.52-9.41,3.15-18.81,4.54-28.24.71-4.87,1-9.81,1.47-14.72l.93-12c0-1.15,0-2.29,0-3.44q.55-20.24,1.12-40.48c4,.71,1.15,4,2.19,5.84v46.24"/><path class="cls-7" d="M8.6,235.09a.49.49,0,0,1,.23.56"/><path class="cls-7" d="M40.08,273,50.81,272a87.6,87.6,0,0,1-8.35,3.74C40.08,276.56,39,275.45,40.08,273Z"/><path class="cls-3" d="M76.09,177.55c0,1.15,0,2.29,0,3.44H74.28l.15-4Z"/><path class="cls-7" d="M79.4,144.05v-1.14"/><path class="cls-1" d="M74.28,181h1.83l-.93,12L73.43,191Q73.86,186,74.28,181Z"/></g></g></svg>