<svg xmlns="http://www.w3.org/2000/svg" viewBox="0 0 118.71 535.68"><defs><style>.cls-1{fill:#345880;}.cls-2{fill:#224773;}.cls-3{fill:#345c81;}.cls-4{fill:#effa1d;}.cls-5{fill:#fbfcfc;}.cls-6{fill:#fcfdfd;}.cls-7{fill:#fcfcfc;}.cls-8{fill:#e4e4e4;}</style></defs><g id="Layer_2" data-name="Layer 2"><g id="Layer_1-2" data-name="Layer 1"><path class="cls-1" d="M39.91,529.7c-8-9.33-12.07-20.5-15.14-32.14-.41-1.47-.81-2.95-1.22-4.43q-4.74-22.29-9.49-44.6l-.15-1Q11.09,425,8.25,402.46a.68.68,0,0,0-.14-.87c-.41-5.45-.75-10.91-1.24-16.36-.86-9.72-1.8-19.43-2.71-29.15l0-.06L1.77,310.59v-1.07c-.26-7.42-.45-14.83-.81-22.24C.82,284.71,0,282.16,0,279.6c-.06-5.35.2-10.71.33-16.07l.78-46a.72.72,0,0,0,.06-.9c.07-.64.13-1.28.2-1.93L4.56,171l0-.06c.64-4.77,1.26-9.54,1.93-14.31,1.46-10.35,3-20.7,4.44-31,.06-.32.13-.63.19-1L21.41,81.05c.14-.85.29-1.69.43-2.53A298.35,298.35,0,0,1,46.62,17.63a95.22,95.22,0,0,1,5.7-8.24l1.85.24A268.87,268.87,0,0,0,27,70.44c-16.42,52.4-22.32,106.38-23.88,161-1.19,41.67.72,83.27,3.69,124.84,2.68,37.55,6,75,13.31,112,4,20.39,8.5,40.73,20.23,58.51Z"/><path class="cls-2" d="M39.91,529.7l.4-3c3.92,4.77,8.67,7.8,15.11,7.85,2.41,0,2.85-.88,2.33-2.89.06-2,.17-4,.17-6q0-82.91,0-165.8c0-5.15-.1-10.31-.15-15.47l0-11.89-.06-12.18.08-11.87V295.57c0-.66.11-1.33.11-2V5.21L54.17,9.63l-1.85-.24L58.15,0C69.75,13.44,76.73,28.26,83,43.51l-1.27,1.14c-6-13.42-12-26.83-21.76-39.6V9.42q0,141.35,0,282.67c0,1.17.07,2.33.11,3.49q0,6.46,0,12.93l.09,11.9-.06,12.15,0,11.91c0,2-.15,4-.15,6q0,87.63,0,175.28c0,2,.1,4,.16,6-.27,1.52-.63,3.39,1.81,2.85,3.43-.77,6.77-2,10.15-3,6.41-4.5,9.81-11.19,12.67-18.11,2.7-6.52,4.87-13.26,7.28-19.9l1.87.17C91.45,500.39,89,507,86.57,513.67c-.19.54.22,1.29.35,1.94-4.39,6.09-8.63,12.31-13.29,18.18-1,1.29-3.59,1.9-5.44,1.89a169.67,169.67,0,0,1-21.41-.86C44.31,534.5,42.19,531.48,39.91,529.7Z"/><path class="cls-3" d="M117.35,260.55l0,7c-.2,8.57-.66,17.14-.51,25.71.08,4.43,1.25,8.85,1.92,13.27l-2.57,3c0,.35,0,.71,0,1.06,0,.66,0,1.32,0,2l-.51,7.43-.54,12.6c-.27,3.63-.54,7.27-.82,10.9-.34,5-.53,10-1,14.92-3.34,31.54-6.29,63.12-10.35,94.57-1.78,13.75-5.86,27.2-8.9,40.78L92,493.58c2.32-10.71,4.94-21.37,6.89-32.14,7-38.69,10.27-77.8,12.83-117l.48-12.24.63-11.78.93-11.89q.14-6.42.29-12.82c.31-15.31.88-30.61.88-45.92a722.46,722.46,0,0,0-7.84-107.45c-5-33.48-13-66.16-25.42-97.7L83,43.51c.67,1.35,1.35,2.7,2,4.06,4.17,8.69,6.58,18,9.39,27.15a19,19,0,0,0,.76,1.82c.21.7.41,1.41.61,2.11a2.53,2.53,0,0,0,.36.92l.91,3,9.15,40c.16.72.33,1.43.49,2.15a.75.75,0,0,0,.23.84l.33,3.14q2.43,18.56,4.89,37.12a6.39,6.39,0,0,0,.83,1.76l.2,3c0,.36,0,.72,0,1.08l0,3q1.59,19.59,3.17,39.19c.09,1,.19,1.95.28,2.92a.65.65,0,0,0,.07.81c0,1,.11,2.05.16,3.08Z"/><path class="cls-4" d="M115,332.58l.54-12.6c.65,0,1.79-.26,1.88-.05.5,1.22,1.47,3,1,3.75C116.56,326.42,120.93,331.53,115,332.58Z"/><path class="cls-5" d="M57.81,332.57l0,11.89H9.06c0,2.1-.12,3.56,0,5,2.24,23.26,4.41,46.54,6.81,69.79,2.52,24.44,6.42,48.7,13.43,72.25,3.09,10.4,7.89,20.42,12.91,30.09,3,5.75,8.08,10.24,15.52,10.12.52,2,.08,2.91-2.33,2.89-6.44-.05-11.19-3.08-15.11-7.85C28.58,509,24.12,488.63,20.08,468.24c-7.32-37-10.63-74.45-13.31-112-3-41.57-4.88-83.17-3.69-124.84,1.56-54.58,7.46-108.56,23.88-161A268.87,268.87,0,0,1,54.17,9.63l3.77-4.42V293.58c0,.66-.08,1.33-.11,2H5.89c.41,4.67.75,8.52,1.14,12.95h50.8q0,5.94-.08,11.87H8.26v12.18Z"/><path class="cls-6" d="M81.71,44.65c12.43,31.54,20.41,64.22,25.42,97.7A722.46,722.46,0,0,1,115,249.8c0,15.31-.57,30.61-.88,45.92l-54-.14c0-1.16-.11-2.32-.11-3.49q0-141.33,0-282.67V5.05C69.67,17.82,75.71,31.23,81.71,44.65Z"/><path class="cls-4" d="M111.76,344.45c-2.56,39.19-5.81,78.3-12.83,117-2,10.77-4.57,21.43-6.89,32.14-2.41,6.64-4.58,13.38-7.28,19.9-2.86,6.92-6.26,13.61-12.67,18.11l-12,.13c-.06-2-.16-4-.16-6q0-87.64,0-175.28c0-2,.1-4,.15-6Z"/><path class="cls-4" d="M57.75,531.71c-7.44.12-12.53-4.37-15.52-10.12-5-9.67-9.82-19.69-12.91-30.09-7-23.55-10.91-47.81-13.43-72.25-2.4-23.25-4.57-46.53-6.81-69.79-.14-1.44,0-2.9,0-5H57.78c0,5.16.14,10.32.15,15.47q0,82.9,0,165.8C57.92,527.72,57.81,529.71,57.75,531.71Z"/><path class="cls-4" d="M60.07,295.58l54,.14-.29,12.82-53.74,0Q60.08,302,60.07,295.58Z"/><path class="cls-4" d="M57.83,308.52H7c-.39-4.43-.73-8.28-1.14-12.95H57.83Z"/><path class="cls-5" d="M60.06,308.51l53.74,0-.93,11.89-52.72,0Z"/><path class="cls-4" d="M60.15,320.41l52.72,0-.63,11.78c-1.82.09-3.63.25-5.45.26q-23.34.06-46.7.09Z"/><path class="cls-7" d="M60.09,332.56q23.35,0,46.7-.09c1.82,0,3.63-.17,5.45-.26l-.48,12.24-51.64,0Z"/><path class="cls-4" d="M57.81,332.57H8.26V320.39H57.75Z"/><path class="cls-8" d="M60.13,531.72l12-.13c-3.38,1-6.72,2.21-10.15,3C59.5,535.11,59.86,533.24,60.13,531.72Z"/></g></g></svg>