<svg id="Layer_1" data-name="Layer 1" xmlns="http://www.w3.org/2000/svg" viewBox="0 0 84.03 11.38"><path d="M82.05,20.39a.2.2,0,0,1-.15,0,.26.26,0,0,1-.09-.25l.65-3.77-2.88-2.82a.25.25,0,0,1-.06-.26.24.24,0,0,1,.21-.16l4.08-.52L85.54,9.3a.25.25,0,0,1,.22-.13h0A.25.25,0,0,1,86,9.3l1.73,3.31,4.09.52a.25.25,0,0,1,.2.16.25.25,0,0,1-.06.26l-2.88,2.82.66,3.77a.25.25,0,0,1-.2.3.23.23,0,0,1-.16,0l-3.6-1.8-3.6,1.8A.14.14,0,0,1,82.05,20.39ZM80.3,13.51l2.61,2.55a.29.29,0,0,1,.07.22l-.6,3.41,3.27-1.63a.22.22,0,0,1,.22,0l3.27,1.63-.6-3.41a.27.27,0,0,1,.08-.22l2.6-2.55L87.52,13a.25.25,0,0,1-.19-.14l-1.57-3-1.57,3A.23.23,0,0,1,84,13Z" transform="translate(-7.99 -9.06)"/><path d="M74.06,13.5l-2.88,2.82.66,3.77a.22.22,0,0,1-.1.24.21.21,0,0,1-.26,0l-3.6-1.79-3.59,1.81h-.12A.27.27,0,0,1,64,20.3a.24.24,0,0,1-.09-.24l.66-3.77-2.88-2.82a.25.25,0,0,1-.07-.26.25.25,0,0,1,.21-.17l4.08-.52,1.73-3.3a.26.26,0,0,1,.22-.14.26.26,0,0,1,.23.14l1.72,3.3,4.09.52a.27.27,0,0,1,.2.17A.24.24,0,0,1,74.06,13.5Z" transform="translate(-7.99 -9.06)"/><path d="M56.18,13.5,53.3,16.32l.7,3.77a.22.22,0,0,1-.1.24.21.21,0,0,1-.26,0L50,18.56l-3.6,1.79h-.11a.27.27,0,0,1-.15-.05.24.24,0,0,1-.09-.24l.65-3.77-2.87-2.82a.25.25,0,0,1-.07-.26A.25.25,0,0,1,44,13l4.08-.52,1.73-3.3A.26.26,0,0,1,50,9.08a.23.23,0,0,1,.22.14L52,12.55l4.09.52a.27.27,0,0,1,.2.17A.24.24,0,0,1,56.18,13.5Z" transform="translate(-7.99 -9.06)"/><path d="M38.3,13.5l-2.88,2.82.66,3.77a.24.24,0,0,1-.1.24.21.21,0,0,1-.26,0l-3.6-1.79-3.6,1.79a.21.21,0,0,1-.11,0,.27.27,0,0,1-.15,0,.24.24,0,0,1-.09-.24l.65-3.77-2.88-2.82a.27.27,0,0,1-.06-.26.25.25,0,0,1,.21-.17l4.08-.52L31.9,9.2a.26.26,0,0,1,.22-.14.23.23,0,0,1,.22.14l1.73,3.3,4.09.52a.27.27,0,0,1,.2.17A.24.24,0,0,1,38.3,13.5Z" transform="translate(-7.99 -9.06)"/><path d="M20.42,13.5l-2.88,2.82.66,3.77a.24.24,0,0,1-.1.24.27.27,0,0,1-.15.05.21.21,0,0,1-.11,0l-3.6-1.79-3.6,1.79a.21.21,0,0,1-.26,0,.27.27,0,0,1-.1-.24l.66-3.77L8.06,13.5A.27.27,0,0,1,8,13.24a.25.25,0,0,1,.21-.17l4.08-.52L14,9.25a.24.24,0,0,1,.32-.12.23.23,0,0,1,.12.12l1.73,3.3,4.09.52a.27.27,0,0,1,.2.17A.25.25,0,0,1,20.42,13.5Z" transform="translate(-7.99 -9.06)"/></svg>